<svg width="33" height="38" viewBox="0 0 33 38" fill="none" xmlns="http://www.w3.org/2000/svg">
<g clip-path="url(#clip0)">
<path d="M5.98303 20.72V18.46C12.5701 17.5423 19.2129 17.0979 25.8618 17.13C25.8618 17.73 25.8618 18.34 25.8026 18.95C27.6925 18.099 29.6786 17.4877 31.716 17.13C30.4175 13.722 28.0514 10.8412 24.9818 8.93086C21.9121 7.02051 18.3089 6.1864 14.7263 6.55683C11.1438 6.92726 7.78049 8.48172 5.1537 10.9811C2.52692 13.4804 0.782204 16.7863 0.187943 20.39L5.98303 20.72Z" fill="#FDC305"/>
<path d="M26.8466 24.23C25.7034 25.51 25.4767 25.43 25.4767 27.68C25.4767 28.59 25.4767 32.58 25.4767 36.86C27.7362 35.346 29.591 33.2879 30.8756 30.8694C32.1603 28.4509 32.8347 25.7474 32.8388 23C32.8259 21.9591 32.7203 20.9216 32.5235 19.9C30.4816 21.1295 28.578 22.5814 26.8466 24.23Z" fill="#FDC305"/>
<path d="M6.26816 25.72C6.26816 25.72 2.53289 24.28 1.1531 23.89C0.775701 23.7693 0.390377 23.6757 0 23.61C0.10683 26.496 0.951645 29.3041 2.45147 31.7586C3.95129 34.2131 6.05455 36.2296 8.55466 37.61L6.26816 25.72Z" fill="#FDC305"/>
<path d="M25.9104 17.12C25.9504 11.5986 25.4886 6.08529 24.5306 0.650004C24.5306 0.650004 24.3926 -0.639996 23.6534 0.410004C23.0728 1.65814 22.6744 2.9854 22.4708 4.35C18.2741 4.07577 14.0615 4.18958 9.88516 4.69C9.10657 2 7.73664 0.750004 7.07632 1C6.41599 1.25 6.36671 4.31 6.36671 4.31L6.04148 18.41C12.6263 17.506 19.2657 17.0749 25.9104 17.12V17.12Z" fill="#F06351"/>
<path d="M12.2308 14C12.2308 13.91 13.2164 14.68 13.6204 14.92C14.0245 15.16 14.2216 15.34 14.2216 15.51C14.2216 15.68 13.9555 15.85 13.6007 15.85C13.2459 15.85 12.7039 15.73 12.6152 15.58H13.5416H13.8274C13.2269 15.1294 12.6898 14.5978 12.2308 14V14Z" fill="black"/>
<path d="M19.6028 14.11L18.5285 15.44C18.5285 15.5 18.361 15.79 18.7059 15.74C19.1141 15.6783 19.5164 15.5812 19.9083 15.45C20.0167 15.45 19.9773 15.26 19.7999 15.28C19.6225 15.3 19.1199 15.33 18.8143 15.39L19.6422 14.13C19.6422 14.13 19.7112 14 19.6028 14.11Z" fill="black"/>
<path d="M16.5081 20.2C16.965 19.9958 17.3426 19.6443 17.5824 19.2C17.8583 18.55 17.5824 18.29 17.1487 18.2C16.5553 18.0902 15.9429 18.2116 15.4339 18.54C15.0495 18.9 15.0988 19.26 15.3846 19.54C15.7308 19.8062 16.1082 20.0279 16.5081 20.2V20.2Z" fill="black"/>
<path d="M16.1139 21.45C16.0035 21.6785 15.8494 21.8825 15.6605 22.05C15.3798 22.2791 15.0348 22.4122 14.675 22.43C14.1564 22.472 13.6407 22.3189 13.2262 22C13.0313 21.8808 12.8552 21.7324 12.7039 21.56C12.6048 21.4491 12.4839 21.3605 12.3491 21.3C12.3491 21.3 13.0882 25.4 14.8819 26.05C16.6757 26.7 16.991 25.3 17.0502 24.92C17.1094 23.7851 16.8276 22.6588 16.242 21.69C16.2223 21.38 16.2125 21.58 16.1139 21.45Z" fill="#F06351"/>
<path d="M14.4976 22.59C14.0396 22.5247 13.5996 22.3651 13.2047 22.1209C12.8098 21.8767 12.4683 21.5531 12.2012 21.17C12.1881 21.157 12.1777 21.1414 12.1706 21.1242C12.1635 21.1071 12.1598 21.0886 12.1598 21.07C12.1598 21.0514 12.1635 21.0329 12.1706 21.0158C12.1777 20.9986 12.1881 20.983 12.2012 20.97C12.2141 20.9567 12.2294 20.9461 12.2463 20.9389C12.2633 20.9317 12.2814 20.928 12.2998 20.928C12.3181 20.928 12.3363 20.9317 12.3532 20.9389C12.3702 20.9461 12.3855 20.9567 12.3983 20.97C12.8958 21.6642 13.6431 22.1313 14.4779 22.27V22.27C14.8047 22.245 15.121 22.1413 15.4004 21.9674C15.6798 21.7934 15.9143 21.5544 16.0843 21.27L16.2223 21.08L16.3209 21.29C16.3209 21.29 16.6855 22.05 17.3064 22.09C17.9273 22.13 18.3413 21.68 18.8932 20.81C18.906 20.7967 18.9214 20.7861 18.9383 20.7789C18.9552 20.7717 18.9734 20.768 18.9917 20.768C19.0101 20.768 19.0283 20.7717 19.0452 20.7789C19.0621 20.7861 19.0774 20.7967 19.0903 20.81C19.1221 20.8306 19.145 20.8629 19.1542 20.9C19.1633 20.9372 19.1581 20.9766 19.1396 21.01C18.5088 22.01 17.8879 22.45 17.2867 22.41C17.0581 22.3763 16.8399 22.2903 16.6487 22.1587C16.4575 22.0271 16.2982 21.8531 16.1829 21.65C15.989 21.9245 15.737 22.1514 15.4454 22.3141C15.1537 22.4767 14.8299 22.571 14.4976 22.59V22.59Z" fill="black"/>
<path d="M25.8611 18.92C24.0915 20.5437 22.4227 22.277 20.8643 24.11C19.3156 25.9361 17.5664 27.5768 15.6507 29C15.4339 28.47 14.0541 27.49 14.0541 27.49C14.0541 27.49 10.9693 25.35 8.94888 23.67C7.85899 22.7373 6.82865 21.7353 5.86408 20.67L3.89296 20.56C6.7414 24.7655 10.9103 27.8676 15.7197 29.36C16.5673 29.22 18.9425 27.5 20.7165 26.1C22.8047 24.2819 24.7612 22.3134 26.5707 20.21C27.0659 19.621 27.4471 18.9425 27.6942 18.21C26.6101 18.6 25.8611 18.92 25.8611 18.92Z" fill="#F06351"/>
</g>
<defs>
<clipPath id="clip0">
<rect width="32.8388" height="37.61" fill="white"/>
</clipPath>
</defs>
</svg>
